<svg id="visual" viewBox="0 0 200 1000" width="200" height="1000" xmlns="http://www.w3.org/2000/svg" xmlns:xlink="http://www.w3.org/1999/xlink" version="1.1"><rect x="0" y="0" width="200" height="1000" fill="#ffffff"></rect><path d="M90 0L84 23.8C78 47.7 66 95.3 74.3 143C82.7 190.7 111.3 238.3 110 286C108.7 333.7 77.3 381.3 57 428.8C36.7 476.3 27.3 523.7 28.2 571.2C29 618.7 40 666.3 63.3 714C86.7 761.7 122.3 809.3 133.7 857C145 904.7 132 952.3 125.5 976.2L119 1000L0 1000L0 976.2C0 952.3 0 904.7 0 857C0 809.3 0 761.7 0 714C0 666.3 0 618.7 0 571.2C0 523.7 0 476.3 0 428.8C0 381.3 0 333.7 0 286C0 238.3 0 190.7 0 143C0 95.3 0 47.7 0 23.8L0 0Z" fill="#050036" stroke-linecap="round" stroke-linejoin="miter"></path></svg>