<svg id="visual" viewBox="0 0 1500 1000" width="1500" height="1000" xmlns="http://www.w3.org/2000/svg" xmlns:xlink="http://www.w3.org/1999/xlink" version="1.1"><rect x="0" y="0" width="1500" height="1000" fill="#001220"></rect><defs><linearGradient id="grad1_0" x1="33.3%" y1="100%" x2="100%" y2="0%"><stop offset="20%" stop-color="#3c92fa" stop-opacity="1"></stop><stop offset="80%" stop-color="#3c92fa" stop-opacity="1"></stop></linearGradient></defs><defs><linearGradient id="grad1_1" x1="33.3%" y1="100%" x2="100%" y2="0%"><stop offset="20%" stop-color="#3c92fa" stop-opacity="1"></stop><stop offset="80%" stop-color="#1870be" stop-opacity="1"></stop></linearGradient></defs><defs><linearGradient id="grad1_2" x1="33.3%" y1="100%" x2="100%" y2="0%"><stop offset="20%" stop-color="#004f85" stop-opacity="1"></stop><stop offset="80%" stop-color="#1870be" stop-opacity="1"></stop></linearGradient></defs><defs><linearGradient id="grad1_3" x1="33.3%" y1="100%" x2="100%" y2="0%"><stop offset="20%" stop-color="#004f85" stop-opacity="1"></stop><stop offset="80%" stop-color="#003050" stop-opacity="1"></stop></linearGradient></defs><defs><linearGradient id="grad1_4" x1="33.3%" y1="100%" x2="100%" y2="0%"><stop offset="20%" stop-color="#001220" stop-opacity="1"></stop><stop offset="80%" stop-color="#003050" stop-opacity="1"></stop></linearGradient></defs><defs><linearGradient id="grad2_0" x1="0%" y1="100%" x2="66.7%" y2="0%"><stop offset="20%" stop-color="#3c92fa" stop-opacity="1"></stop><stop offset="80%" stop-color="#3c92fa" stop-opacity="1"></stop></linearGradient></defs><defs><linearGradient id="grad2_1" x1="0%" y1="100%" x2="66.7%" y2="0%"><stop offset="20%" stop-color="#1870be" stop-opacity="1"></stop><stop offset="80%" stop-color="#3c92fa" stop-opacity="1"></stop></linearGradient></defs><defs><linearGradient id="grad2_2" x1="0%" y1="100%" x2="66.7%" y2="0%"><stop offset="20%" stop-color="#1870be" stop-opacity="1"></stop><stop offset="80%" stop-color="#004f85" stop-opacity="1"></stop></linearGradient></defs><defs><linearGradient id="grad2_3" x1="0%" y1="100%" x2="66.7%" y2="0%"><stop offset="20%" stop-color="#003050" stop-opacity="1"></stop><stop offset="80%" stop-color="#004f85" stop-opacity="1"></stop></linearGradient></defs><defs><linearGradient id="grad2_4" x1="0%" y1="100%" x2="66.7%" y2="0%"><stop offset="20%" stop-color="#003050" stop-opacity="1"></stop><stop offset="80%" stop-color="#001220" stop-opacity="1"></stop></linearGradient></defs><g transform="translate(1500, 1000)"><path d="M-360.6 0C-359.3 -22.7 -358 -45.5 -336.8 -59.4C-315.6 -73.3 -274.5 -78.4 -272.5 -99.2C-270.5 -119.9 -307.7 -156.3 -312.2 -180.3C-316.8 -204.3 -288.6 -216 -262 -219.8C-235.3 -223.7 -210.2 -219.8 -196.7 -234.4C-183.2 -249 -181.4 -282.2 -165 -285.8C-148.6 -289.4 -117.4 -263.3 -99.2 -272.5C-80.9 -281.7 -75.5 -326.1 -61.1 -346.7C-46.7 -367.2 -23.4 -363.9 0 -360.6L0 0Z" fill="#022137"></path><path d="M-288.4 0C-287.4 -18.2 -286.4 -36.4 -269.4 -47.5C-252.5 -58.7 -219.6 -62.8 -218 -79.3C-216.4 -95.9 -246.2 -125 -249.8 -144.2C-253.4 -163.4 -230.9 -172.8 -209.6 -175.9C-188.3 -179 -168.1 -175.8 -157.4 -187.5C-146.6 -199.2 -145.2 -225.8 -132 -228.6C-118.8 -231.5 -94 -210.7 -79.3 -218C-64.7 -225.4 -60.4 -260.9 -48.9 -277.3C-37.4 -293.8 -18.7 -291.1 0 -288.4L0 0Z" fill="#003f6a"></path><path d="M-216.3 0C-215.6 -13.6 -214.8 -27.3 -202.1 -35.6C-189.4 -44 -164.7 -47.1 -163.5 -59.5C-162.3 -72 -184.6 -93.8 -187.3 -108.2C-190.1 -122.6 -173.2 -129.6 -157.2 -131.9C-141.2 -134.2 -126.1 -131.9 -118 -140.6C-109.9 -149.4 -108.9 -169.3 -99 -171.5C-89.1 -173.6 -70.5 -158 -59.5 -163.5C-48.6 -169 -45.3 -195.7 -36.7 -208C-28 -220.3 -14 -218.3 0 -216.3L0 0Z" fill="#0860a1"></path><path d="M-144.2 0C-143.7 -9.1 -143.2 -18.2 -134.7 -23.8C-126.2 -29.3 -109.8 -31.4 -109 -39.7C-108.2 -48 -123.1 -62.5 -124.9 -72.1C-126.7 -81.7 -115.5 -86.4 -104.8 -87.9C-94.1 -89.5 -84.1 -87.9 -78.7 -93.8C-73.3 -99.6 -72.6 -112.9 -66 -114.3C-59.4 -115.7 -47 -105.3 -39.7 -109C-32.4 -112.7 -30.2 -130.4 -24.4 -138.7C-18.7 -146.9 -9.3 -145.6 0 -144.2L0 0Z" fill="#2981dc"></path><path d="M-72.1 0C-71.9 -4.5 -71.6 -9.1 -67.4 -11.9C-63.1 -14.7 -54.9 -15.7 -54.5 -19.8C-54.1 -24 -61.5 -31.3 -62.4 -36.1C-63.4 -40.9 -57.7 -43.2 -52.4 -44C-47.1 -44.7 -42 -44 -39.3 -46.9C-36.6 -49.8 -36.3 -56.4 -33 -57.2C-29.7 -57.9 -23.5 -52.7 -19.8 -54.5C-16.2 -56.3 -15.1 -65.2 -12.2 -69.3C-9.3 -73.4 -4.7 -72.8 0 -72.1L0 0Z" fill="#3c92fa"></path></g><g transform="translate(0, 0)"><path d="M360.6 0C333.8 16.9 307 33.7 302.3 53.3C297.7 72.9 315.2 95.2 315.7 114.9C316.2 134.6 299.7 151.8 279.7 161.5C259.7 171.2 236.3 173.4 230.6 193.5C224.9 213.5 237 251.4 231.8 276.2C226.6 301 204.1 312.9 179 310C153.9 307.2 126.3 289.7 106.7 293.2C87.1 296.7 75.7 321.1 59.2 335.8C42.8 350.5 21.4 355.5 0 360.6L0 0Z" fill="#022137"></path><path d="M288.4 0C267 13.5 245.6 27 241.9 42.6C238.2 58.3 252.2 76.2 252.6 91.9C253 107.7 239.8 121.4 223.8 129.2C207.8 137 189 138.7 184.5 154.8C179.9 170.8 189.6 201.1 185.4 221C181.2 240.8 163.3 250.3 143.2 248C123.1 245.8 101 231.8 85.4 234.5C69.7 237.3 60.5 256.9 47.4 268.7C34.2 280.4 17.1 284.4 0 288.4L0 0Z" fill="#003f6a"></path><path d="M216.3 0C200.3 10.1 184.2 20.2 181.4 32C178.6 43.7 189.1 57.1 189.4 69C189.7 80.8 179.8 91.1 167.8 96.9C155.8 102.7 141.8 104.1 138.3 116.1C134.9 128.1 142.2 150.8 139.1 165.7C135.9 180.6 122.4 187.7 107.4 186C92.4 184.3 75.8 173.8 64 175.9C52.3 178 45.4 192.7 35.5 201.5C25.7 210.3 12.8 213.3 0 216.3L0 0Z" fill="#0860a1"></path><path d="M144.2 0C133.5 6.7 122.8 13.5 120.9 21.3C119.1 29.2 126.1 38.1 126.3 46C126.5 53.9 119.9 60.7 111.9 64.6C103.9 68.5 94.5 69.4 92.2 77.4C90 85.4 94.8 100.5 92.7 110.5C90.6 120.4 81.6 125.1 71.6 124C61.6 122.9 50.5 115.9 42.7 117.3C34.9 118.7 30.3 128.4 23.7 134.3C17.1 140.2 8.6 142.2 0 144.2L0 0Z" fill="#2981dc"></path><path d="M72.1 0C66.8 3.4 61.4 6.7 60.5 10.7C59.5 14.6 63 19 63.1 23C63.2 26.9 59.9 30.4 55.9 32.3C51.9 34.2 47.3 34.7 46.1 38.7C45 42.7 47.4 50.3 46.4 55.2C45.3 60.2 40.8 62.6 35.8 62C30.8 61.4 25.3 57.9 21.3 58.6C17.4 59.3 15.1 64.2 11.8 67.2C8.6 70.1 4.3 71.1 0 72.1L0 0Z" fill="#3c92fa"></path></g></svg>